<?xml version="1.0" standalone="no"?>
<!DOCTYPE svg PUBLIC "-//W3C//DTD SVG 20010904//EN"
 "http://www.w3.org/TR/2001/REC-SVG-20010904/DTD/svg10.dtd">
<svg version="1.0" xmlns="http://www.w3.org/2000/svg"
 width="48.000000pt" height="48.000000pt" viewBox="0 0 48.000000 48.000000"
 preserveAspectRatio="xMidYMid meet">

<g transform="translate(0.000000,48.000000) scale(0.100000,-0.100000)"
fill="#000000" stroke="none">
<path d="M150 310 c0 -36 3 -40 25 -40 23 0 25 4 25 40 0 36 -2 40 -25 40 -22
0 -25 -4 -25 -40z"/>
<path d="M220 310 l0 -40 61 0 c57 0 60 1 48 18 -37 49 -54 62 -81 62 -26 0
-28 -3 -28 -40z"/>
<path d="M10 215 c0 -24 5 -35 15 -35 10 0 15 11 15 35 0 24 -5 35 -15 35 -10
0 -15 -11 -15 -35z"/>
<path d="M62 198 c-27 -27 0 -88 40 -88 36 0 62 62 36 88 -15 15 -61 15 -76 0z
m54 -29 c10 -17 -13 -36 -27 -22 -12 12 -4 33 11 33 5 0 12 -5 16 -11z"/>
<path d="M332 198 c-18 -18 -15 -53 6 -71 24 -22 45 -21 65 1 34 37 15 82 -33
82 -14 0 -31 -5 -38 -12z m54 -29 c10 -17 -13 -36 -27 -22 -12 12 -4 33 11 33
5 0 12 -5 16 -11z"/>
</g>
</svg>
