<?xml version="1.0" standalone="no"?>
<!DOCTYPE svg PUBLIC "-//W3C//DTD SVG 20010904//EN"
 "http://www.w3.org/TR/2001/REC-SVG-20010904/DTD/svg10.dtd">
<svg version="1.0" xmlns="http://www.w3.org/2000/svg"
 width="48.000000pt" height="48.000000pt" viewBox="0 0 48.000000 48.000000"
 preserveAspectRatio="xMidYMid meet">

<g transform="translate(0.000000,48.000000) scale(0.100000,-0.100000)"
fill="#000000" stroke="none">
<path d="M107 383 c-2 -4 -7 -21 -11 -38 -4 -16 -9 -38 -12 -47 -5 -17 7 -18
156 -18 l160 0 -6 28 c-22 86 -5 77 -151 80 -73 1 -133 -1 -136 -5z"/>
<path d="M159 168 c8 -21 15 -23 81 -23 66 0 73 2 81 23 8 22 7 22 -81 22 -88
0 -89 0 -81 -22z"/>
<path d="M32 85 c2 -16 10 -20 38 -20 24 0 36 5 38 16 2 13 -6 18 -38 21 -36
3 -40 1 -38 -17z"/>
<path d="M407 102 c-30 -3 -37 -7 -35 -20 4 -23 66 -29 74 -8 10 25 1 31 -39
28z"/>
</g>
</svg>
