<?xml version="1.0" standalone="no"?>
<!DOCTYPE svg PUBLIC "-//W3C//DTD SVG 20010904//EN"
 "http://www.w3.org/TR/2001/REC-SVG-20010904/DTD/svg10.dtd">
<svg version="1.0" xmlns="http://www.w3.org/2000/svg"
 width="64.000000pt" height="64.000000pt" viewBox="0 0 64.000000 64.000000"
 preserveAspectRatio="xMidYMid meet">

<g transform="translate(0.000000,64.000000) scale(0.100000,-0.100000)"
fill="#000000" stroke="none">
<path d="M50 155 c0 -124 2 -125 180 -125 178 0 180 1 180 125 0 68 -3 85 -14
85 -11 0 -16 -15 -18 -52 l-3 -53 -145 0 -145 0 -3 53 c-2 37 -7 52 -18 52
-11 0 -14 -17 -14 -85z m205 -75 c0 -18 -6 -26 -23 -28 -24 -4 -38 18 -28 44
3 9 15 14 28 12 17 -2 23 -10 23 -28z"/>
<path d="M135 180 c8 -13 122 -13 130 0 4 6 -20 10 -65 10 -45 0 -69 -4 -65
-10z"/>
</g>
</svg>
