<?xml version="1.0" standalone="no"?>
<!DOCTYPE svg PUBLIC "-//W3C//DTD SVG 20010904//EN"
 "http://www.w3.org/TR/2001/REC-SVG-20010904/DTD/svg10.dtd">
<svg version="1.0" xmlns="http://www.w3.org/2000/svg"
 width="64.000000pt" height="64.000000pt" viewBox="0 0 64.000000 64.000000"
 preserveAspectRatio="xMidYMid meet">

<g transform="translate(0.000000,64.000000) scale(0.100000,-0.100000)"
fill="#000000" stroke="none">
<path d="M187 602 c-10 -11 -17 -36 -17 -61 0 -36 -3 -41 -17 -37 -37 11 -46
-8 -50 -108 -2 -58 0 -96 6 -96 5 0 10 15 10 33 -1 106 5 149 18 154 27 10 33
-20 33 -158 0 -152 7 -169 68 -169 45 0 40 18 -5 22 l-38 3 0 205 0 205 125 0
125 0 3 -69 c4 -86 -1 -101 -26 -85 -11 7 -27 9 -36 6 -21 -8 -21 -43 2 -57
16 -10 16 -10 0 -20 -22 -13 -24 -48 -4 -56 21 -8 27 -30 16 -59 -8 -20 -5
-27 15 -44 14 -10 25 -22 25 -25 0 -3 -34 -6 -75 -6 -88 0 -102 -18 -17 -22
l57 -3 -38 -24 c-42 -26 -95 -111 -69 -111 5 0 17 18 27 39 11 25 28 44 46 51
16 7 31 20 34 29 2 9 15 21 27 26 22 10 55 62 45 72 -3 2 -14 0 -25 -6 -15 -8
-23 -7 -31 3 -9 11 -6 18 18 35 45 33 80 26 60 -11 -9 -16 -8 -19 3 -16 10 4
13 30 13 103 0 97 0 99 -25 105 -24 6 -23 7 23 34 36 21 47 34 47 52 0 30 -24
41 -61 27 -25 -10 -29 -9 -29 6 0 41 -30 51 -152 51 -99 0 -117 -3 -131 -18z
m353 -67 c0 -7 -16 -22 -35 -34 l-35 -20 0 24 c0 16 9 29 27 39 30 15 43 13
43 -9z m-41 -109 c10 -12 5 -19 -25 -40 -28 -19 -41 -23 -51 -15 -16 14 -9 26
31 50 37 23 31 22 45 5z m-89 -6 c0 -5 -4 -10 -10 -10 -5 0 -10 5 -10 10 0 6
5 10 10 10 6 0 10 -4 10 -10z m94 -75 c0 -5 -15 -20 -34 -32 -26 -19 -36 -21
-48 -11 -12 10 -10 16 14 35 29 23 70 28 68 8z"/>
<path d="M210 570 c0 -5 5 -10 10 -10 6 0 10 5 10 10 0 6 -4 10 -10 10 -5 0
-10 -4 -10 -10z"/>
<path d="M250 570 c0 -5 5 -10 10 -10 6 0 10 5 10 10 0 6 -4 10 -10 10 -5 0
-10 -4 -10 -10z"/>
<path d="M220 500 c0 -27 3 -31 23 -28 16 2 22 10 22 28 0 18 -6 26 -22 28
-20 3 -23 -1 -23 -28z"/>
<path d="M294 516 c-10 -26 4 -48 28 -44 33 4 33 52 0 56 -13 2 -25 -3 -28
-12z m36 -16 c0 -5 -4 -10 -10 -10 -5 0 -10 5 -10 10 0 6 5 10 10 10 6 0 10
-4 10 -10z"/>
<path d="M374 516 c-10 -26 4 -48 28 -44 33 4 33 52 0 56 -13 2 -25 -3 -28
-12z m36 -16 c0 -5 -4 -10 -10 -10 -5 0 -10 5 -10 10 0 6 5 10 10 10 6 0 10
-4 10 -10z"/>
<path d="M214 436 c-10 -26 4 -48 28 -44 33 4 33 52 0 56 -13 2 -25 -3 -28
-12z"/>
<path d="M294 436 c-10 -26 4 -48 28 -44 33 4 33 52 0 56 -13 2 -25 -3 -28
-12z m36 -16 c0 -5 -4 -10 -10 -10 -5 0 -10 5 -10 10 0 6 5 10 10 10 6 0 10
-4 10 -10z"/>
<path d="M214 356 c-10 -26 4 -48 28 -44 33 4 33 52 0 56 -13 2 -25 -3 -28
-12z"/>
<path d="M294 356 c-10 -26 4 -48 28 -44 33 4 33 52 0 56 -13 2 -25 -3 -28
-12z m36 -16 c0 -5 -4 -10 -10 -10 -5 0 -10 5 -10 10 0 6 5 10 10 10 6 0 10
-4 10 -10z"/>
<path d="M120 240 c0 -36 -10 -62 -50 -129 -28 -46 -48 -86 -45 -89 7 -7 6 -8
59 80 50 82 65 134 47 164 -9 16 -10 11 -11 -26z"/>
<path d="M290 265 c-26 -32 13 -81 48 -59 22 14 27 41 12 59 -16 19 -44 19
-60 0z m46 -16 c10 -17 -13 -36 -27 -22 -12 12 -4 33 11 33 5 0 12 -5 16 -11z"/>
</g>
</svg>
